<svg 
 xmlns="http://www.w3.org/2000/svg"
 xmlns:xlink="http://www.w3.org/1999/xlink"
 width="0.722in" height="0.722in">
<path fill-rule="evenodd"  fill="rgb(255, 255, 255)"
 d="M26.084,0.826 C21.464,0.826 17.229,1.900 13.379,4.046 C9.529,6.193 6.472,9.180 4.209,13.006 C1.945,16.833 0.814,21.150 0.814,25.956 M0.814,25.956 C0.814,30.763 1.945,35.091 4.209,38.941 C6.472,42.791 9.529,45.790 13.379,47.936 C17.229,50.083 21.464,51.156 26.084,51.156 L26.084,51.156 C30.704,51.156 34.927,50.083 38.754,47.936 C42.580,45.790 45.614,42.791 47.854,38.941 C50.094,35.091 51.214,30.763 51.214,25.956 C51.214,21.150 50.105,16.833 47.889,13.006 C45.672,9.180 42.639,6.193 38.789,4.046 C34.939,1.900 30.704,0.826 26.084,0.826 M26.084,40.236 C22.117,40.236 18.955,38.941 16.599,36.351 C14.242,33.761 13.064,30.296 13.064,25.956 C13.064,21.570 14.242,18.093 16.599,15.526 C18.955,12.960 22.117,11.676 26.084,11.676 C30.004,11.676 33.142,12.971 35.499,15.561 C37.855,18.151 39.034,21.616 39.034,25.956 C39.034,30.250 37.855,33.703 35.499,36.316 C33.142,38.930 30.004,40.236 26.084,40.236 L26.084,40.236 Z"/>
</svg>